<svg xmlns="http://www.w3.org/2000/svg" viewBox="0 0 512 256" role="img" aria-label="Desert">
  <defs>
    <linearGradient id="sky" x1="0" x2="0" y1="0" y2="1">
      <stop offset="0" stop-color="#d9a45f"/>
      <stop offset="0.56" stop-color="#e7c27a"/>
      <stop offset="1" stop-color="#c78542"/>
    </linearGradient>
    <linearGradient id="dune" x1="0" x2="1" y1="0" y2="0">
      <stop offset="0" stop-color="#7d5a2d"/>
      <stop offset="0.45" stop-color="#c5904b"/>
      <stop offset="1" stop-color="#f0c979"/>
    </linearGradient>
    <linearGradient id="shadow" x1="0" x2="1" y1="0" y2="0">
      <stop offset="0" stop-color="#3a2b20"/>
      <stop offset="1" stop-color="#9b6730"/>
    </linearGradient>
  </defs>
  <rect width="512" height="256" fill="url(#sky)"/>
  <circle cx="402" cy="58" r="34" fill="#ffe2a2"/>
  <path d="M0 161c74-39 139-47 195-24 73 30 129 27 202-7 43-20 80-24 115-12v138H0z" fill="url(#shadow)"/>
  <path d="M0 190c63-27 137-24 222 9 96 37 194 32 290-14v71H0z" fill="url(#dune)"/>
  <path d="M66 228c52-23 113-26 183-7 94 25 164 23 234-9" fill="none" stroke="#f7d994" stroke-width="7" stroke-linecap="round" opacity=".6"/>
  <path d="M93 202c38-14 80-15 126-2" fill="none" stroke="#493321" stroke-width="5" stroke-linecap="round" opacity=".38"/>
  <path d="M316 195c41-9 82-18 125-36" fill="none" stroke="#493321" stroke-width="5" stroke-linecap="round" opacity=".32"/>
  <g fill="#5d6d3f">
    <path d="M118 167c-10-12-12-27-5-45 13 11 17 26 11 45z"/>
    <path d="M132 171c-1-19 8-34 27-45 5 19-3 35-22 47z"/>
    <path d="M126 169c9-16 24-24 45-24-5 20-19 30-40 30z"/>
  </g>
  <g fill="#6f7c48">
    <path d="M338 146c-9-10-10-22-4-37 11 10 14 22 8 37z"/>
    <path d="M351 150c0-16 8-29 23-38 4 16-3 30-19 39z"/>
    <path d="M346 148c8-13 20-20 38-20-5 17-17 25-34 25z"/>
  </g>
</svg>
